<svg xmlns="http://www.w3.org/2000/svg" viewBox="0 0 22 22">
  <path fill="currentColor" d="M10.5 2v2.0253906A7 7 0 0 0 4.0175781 10.5H2v1h2.0253906A7 7 0 0 0 10.5 17.982422V20h1v-2.025391A7 7 0 0 0 17.982422 11.5H20v-1h-2.025391A7 7 0 0 0 11.5 4.0175781V2h-1zm0 3.0253906v2.0097656A4 4 0 0 0 7.0371094 10.5H5.0253906A6 6 0 0 1 10.5 5.0253906zm1 0A6 6 0 0 1 16.974609 10.5h-2.009765A4 4 0 0 0 11.5 7.0371094V5.0253906zm-1 3.015625V10.5H8.046875A3 3 0 0 1 10.5 8.0410156zm1 .0058594A3 3 0 0 1 13.958984 10.5H11.5V8.046875zM5.0253906 11.5h2.0097656A4 4 0 0 0 10.5 14.962891v2.011718A6 6 0 0 1 5.0253906 11.5zm3.015625 0H10.5v2.453125A3 3 0 0 1 8.0410156 11.5zM11.5 11.5h2.453125A3 3 0 0 1 11.5 13.958984V11.5zm3.462891 0h2.011718A6 6 0 0 1 11.5 16.974609v-2.009765A4 4 0 0 0 14.962891 11.5z" color="#4d4d4d"/>
</svg>